# File created by Blade
# Date/Time:  Tue Sep 30 19:29:03 2014
#---------------------------------------------------------
:version 1.10
:name HOM
:units
  mass 1.0
  length 1.000000
  angle deg
:documentation
     Acclaim Skeleton File
:root
   axis xyz
   order TX TY TZ RX RY RZ
   position 0.000000 0.000000 0.000000
   orientation 0 0 0
:bonedata
   begin
      id 1
      name RightUpLeg_dum
      direction -1.000000 0.000000 0.000000
      length 3.766986
      axis 0.0 0.0 0.0 xyz
   end
   begin
      id 2
      name LeftUpLeg_dum
      direction 1.000000 0.000000 0.000000
      length 3.766986
      axis 0.0 0.0 0.0 xyz
   end
   begin
      id 3
      name Spine_dum
      direction 0.000000 1.000000 0.000000
      length 7.779697
      axis 0.0 0.0 0.0 xyz
   end
   begin
      id 4
      name RightUpLeg
      direction 0.000000 -1.000000 0.000000
      length 18.017682
      axis 0.0 0.0 0.0 xyz
      dof rx ry rz
   end
   begin
      id 5
      name RightLeg
      direction 0.000000 -1.000000 0.000000
      length 16.881075
      axis 0.0 0.0 0.0 xyz
      dof rx ry rz
   end
   begin
      id 6
      name RightFoot
      direction 0.000000 -0.258819 0.965926
      length 5.770812
      axis 15.0 0.0 0.0 xyz
      dof rx ry rz
   end
   begin
      id 7
      name RightToeBase
      direction 0.000000 0.000000 1.000000
      length 2.952750
      axis 0.0 0.0 0.0 xyz
      dof rx ry rz
   end
   begin
      id 8
      name LeftUpLeg
      direction 0.000000 -1.000000 0.000000
      length 18.017682
      axis 0.0 0.0 0.0 xyz
      dof rx ry rz
   end
   begin
      id 9
      name LeftLeg
      direction 0.000000 -1.000000 0.000000
      length 16.881075
      axis 0.0 0.0 0.0 xyz
      dof rx ry rz
   end
   begin
      id 10
      name LeftFoot
      direction 0.000000 -0.258819 0.965926
      length 5.770812
      axis 15.0 0.0 0.0 xyz
      dof rx ry rz
   end
   begin
      id 11
      name LeftToeBase
      direction 0.000000 0.000000 1.000000
      length 2.952750
      axis 0.0 0.0 0.0 xyz
      dof rx ry rz
   end
   begin
      id 12
      name Spine
      direction 0.000000 1.000000 0.000000
      length 0.000000
      axis 0.0 0.0 0.0 xyz
      dof rx ry rz
   end
   begin
      id 13
      name Spine_dum1
      direction 0.000000 1.000000 0.000000
      length 10.941760
      axis 0.0 0.0 0.0 xyz
   end
   begin
      id 14
      name Spine_dum2
      direction 0.000000 1.000000 0.000000
      length 10.941760
      axis 0.0 0.0 0.0 xyz
   end
   begin
      id 15
      name Spine_dum3
      direction 0.000000 1.000000 0.000000
      length 16.646042
      axis 0.0 0.0 0.0 xyz
   end
   begin
      id 16
      name RightShoulder
      direction -1.000000 0.000000 0.000000
      length 7.708937
      axis 0.0 0.0 90.0 xyz
      dof rx ry rz
   end
   begin
      id 17
      name RightArm
      direction -1.000000 0.000000 0.000000
      length 11.521345
      axis 0.0 0.0 90.0 xyz
      dof rx ry rz
   end
   begin
      id 18
      name RightForeArm
      direction -1.000000 0.000000 0.000000
      length 10.175898
      axis 0.0 0.0 90.0 xyz
      dof ry rz rx
   end
   begin
      id 19
      name RightHand
      direction -1.000000 0.000000 0.000000
      length 0.000000
      axis 0.0 0.0 90.0 xyz
      dof rx ry rz
   end
   begin
      id 20
      name RightHand_dum1
      direction -1.000000 0.000000 0.000000
      length 3.937000
      axis 0.0 0.0 90.0 xyz
   end
   begin
      id 21
      name RightHand_dum2
      direction 0.000000 0.000000 0.000000
      length 0.000000
      axis 0.0 0.0 90.0 xyz
   end
   begin
      id 22
      name RightHandThumb1
      direction 0.000000 0.000000 1.000000
      length 3.937000
      axis 0.0 0.0 90.0 xyz
      dof rx rz ry
   end
   begin
      id 23
      name LeftShoulder
      direction 1.000000 0.000000 0.000000
      length 7.708937
      axis 0.0 0.0 -90.0 xyz
      dof rx ry rz
   end
   begin
      id 24
      name LeftArm
      direction 1.000000 0.000000 0.000000
      length 11.521345
      axis 0.0 0.0 -90.0 xyz
      dof rx ry rz
   end
   begin
      id 25
      name LeftForeArm
      direction 1.000000 0.000000 0.000000
      length 10.175898
      axis 0.0 0.0 -90.0 xyz
      dof ry rz rx
   end
   begin
      id 26
      name LeftHand
      direction 1.000000 0.000000 0.000000
      length 0.000000
      axis 0.0 0.0 -90.0 xyz
      dof rx ry rz
   end
   begin
      id 27
      name LeftHand_dum1
      direction 1.000000 0.000000 0.000000
      length 3.937000
      axis 0.0 0.0 -90.0 xyz
   end
   begin
      id 28
      name LeftHand_dum2
      direction 0.000000 0.000000 0.000000
      length 0.000000
      axis 0.0 0.0 -90.0 xyz
   end
   begin
      id 29
      name LeftHandThumb1
      direction 0.000000 0.000000 1.000000
      length 3.937000
      axis 0.0 0.0 -90.0 xyz
      dof rx rz ry
   end
   begin
      id 30
      name Head
      direction 0.000000 1.000000 0.000000
      length 4.527550
      axis 0.0 0.0 0.0 xyz
      dof rx ry rz
   end
:hierarchy
   begin
      root RightUpLeg_dum LeftUpLeg_dum Spine_dum
      RightUpLeg_dum RightUpLeg
      LeftUpLeg_dum LeftUpLeg
      Spine_dum Spine
      RightUpLeg RightLeg
      RightLeg RightFoot
      RightFoot RightToeBase
      LeftUpLeg LeftLeg
      LeftLeg LeftFoot
      LeftFoot LeftToeBase
      Spine Spine_dum1 Spine_dum2 Spine_dum3
      Spine_dum1 RightShoulder
      Spine_dum2 LeftShoulder
      Spine_dum3 Head
      RightShoulder RightArm
      RightArm RightForeArm
      RightForeArm RightHand
      RightHand RightHand_dum1 RightHand_dum2
      RightHand_dum2 RightHandThumb1
      LeftShoulder LeftArm
      LeftArm LeftForeArm
      LeftForeArm LeftHand
      LeftHand LeftHand_dum1 LeftHand_dum2
      LeftHand_dum2 LeftHandThumb1
   end

# File created by Blade
# Date/Time:  Mon Sep 22 16:09:39 2014
# Frame Rate: 120.000 fps
#------------------------------------------------------
:FULLY-SPECIFIED
:DEGREES
374
root 2.812016 36.999606 1.860235 -0.541607 -3.256018 1.663928
RightUpLeg 7.501670 -6.154698 -3.094363
RightLeg -4.732716 -0.000000 0.000000
RightFoot -12.955218 -15.604281 15.715500
RightToeBase 14.989535 -0.000000 -0.000000
LeftUpLeg 5.197031 0.796782 1.467678
LeftLeg -1.319458 -0.000000 0.000000
LeftFoot -10.205874 13.506742 -16.461444
LeftToeBase 9.544121 -0.000000 -0.000000
Spine 1.616873 -1.884777 -0.891995
RightShoulder 6.451952 -27.428247 -4.507904
RightArm 26.256835 -6.204925 77.156434
RightForeArm 90.732593 -0.000000 76.030562
RightHand 11.163880 -0.000000 15.674712
RightHandThumb1 -24.326973 -0.000000 -32.862282
LeftShoulder -18.441426 38.245753 -2.917734
LeftArm 49.782042 25.297133 -52.936756
LeftForeArm 24.073539 0.000000 30.130283
LeftHand -13.182545 0.000000 -10.854904
LeftHandThumb1 -26.253704 0.000000 33.147579
Head 1.744049 7.858357 3.621691
375
root 2.812123 37.000000 1.860282 -0.535218 -3.279193 1.665481
RightUpLeg 7.494805 -6.136818 -3.095551
RightLeg -4.742312 -0.000000 0.000000
RightFoot -12.935782 -15.598171 15.733054
RightToeBase 14.933430 -0.000000 -0.000000
LeftUpLeg 5.196992 0.809195 1.464434
LeftLeg -1.320431 -0.000000 0.000000
LeftFoot -10.179522 13.509725 -16.415151
LeftToeBase 9.445541 -0.000000 -0.000000
Spine 1.619052 -1.850267 -0.891674
RightShoulder 6.462556 -27.461057 -4.546740
RightArm 26.362584 -6.539366 76.880903
RightForeArm 90.761886 -0.000000 75.982428
RightHand 11.149673 0.000000 15.690353
RightHandThumb1 -24.326973 -0.000000 -32.862282
LeftShoulder -18.443535 38.207215 -2.941031
LeftArm 49.736956 25.288113 -52.961557
LeftForeArm 24.154907 -0.000000 30.157358
LeftHand -13.147162 0.000000 -11.002716
LeftHandThumb1 -26.253704 0.000000 33.147579
Head 1.707797 7.825793 3.604520
376
root 2.811654 37.000181 1.860243 -0.524526 -3.301727 1.664929
RightUpLeg 7.481819 -6.131853 -3.094752
RightLeg -4.746144 -0.000000 0.000000
RightFoot -12.930227 -15.577312 15.731205
RightToeBase 14.971192 -0.000000 -0.000000
LeftUpLeg 5.198145 0.819389 1.467853
LeftLeg -1.343196 -0.000000 0.000000
LeftFoot -10.203430 13.522236 -16.481489
LeftToeBase 9.542745 -0.000000 -0.000000
Spine 1.616858 -1.814541 -0.893569
RightShoulder 6.462407 -27.485285 -4.583647
RightArm 26.479696 -6.920520 76.557930
RightForeArm 90.775540 -0.000000 75.913956
RightHand 11.067015 -0.000000 15.711429
RightHandThumb1 -24.326973 -0.000000 -32.862282
LeftShoulder -18.446591 38.177610 -2.952555
LeftArm 49.725491 25.301437 -52.952264
LeftForeArm 24.144507 -0.000000 30.161852
LeftHand -13.154461 -0.000000 -11.018628
LeftHandThumb1 -26.253704 0.000000 33.147579
Head 1.666077 7.831306 3.621629
377
root 2.811449 37.000696 1.859511 -0.512533 -3.327962 1.663480
RightUpLeg 7.466375 -6.118341 -3.090545
RightLeg -4.749865 -0.000000 0.000000
RightFoot -12.906541 -15.581919 15.694051
RightToeBase 14.922756 -0.000000 -0.000000
LeftUpLeg 5.194195 0.830367 1.466752
LeftLeg -1.353620 -0.000000 0.000000
LeftFoot -10.207842 13.537916 -16.504813
LeftToeBase 9.596860 -0.000000 -0.000000
Spine 1.615147 -1.782140 -0.893155
RightShoulder 6.483616 -27.519901 -4.632029
RightArm 26.603779 -7.319451 76.224049
RightForeArm 90.759916 -0.000000 75.871543
RightHand 10.876401 -0.000000 15.674421
RightHandThumb1 -24.326973 -0.000000 -32.862282
LeftShoulder -18.463745 38.152791 -2.983777
LeftArm 49.713795 25.297546 -52.960388
LeftForeArm 24.277095 -0.000000 30.158391
LeftHand -13.248992 -0.000000 -10.788849
LeftHandThumb1 -26.253704 0.000000 33.147579
Head 1.626481 7.798827 3.604066
378
root 2.809050 37.001174 1.855894 -0.469516 -3.358735 1.648638
RightUpLeg 7.411328 -6.105454 -3.066890
RightLeg -4.747828 -0.000000 0.000000
RightFoot -12.911691 -15.570978 15.726519
RightToeBase 15.004666 -0.000000 -0.000000
LeftUpLeg 5.149488 0.857506 1.486787
LeftLeg -1.352024 -0.000000 0.000000
LeftFoot -10.212104 13.537422 -16.516771
LeftToeBase 9.589005 -0.000000 -0.000000
Spine 1.575257 -1.731578 -0.877198
RightShoulder 6.491469 -27.538491 -4.672696
RightArm 26.699916 -7.746099 75.911928
RightForeArm 90.624640 -0.000000 75.820333
RightHand 10.915130 -0.000000 15.569146
RightHandThumb1 -24.326973 -0.000000 -32.862282
LeftShoulder -18.451654 38.139438 -2.996462
LeftArm 49.705119 25.310861 -52.928586
LeftForeArm 24.252470 -0.000000 30.180010
LeftHand -13.292241 -0.000000 -10.754920
LeftHandThumb1 -26.253704 0.000000 33.147579
Head 1.600251 7.751234 3.587318
379
root 2.808624 37.001786 1.855668 -0.455295 -3.390067 1.651618
RightUpLeg 7.406389 -6.058704 -3.066354
RightLeg -4.776146 -0.000000 0.000000
RightFoot -12.891868 -15.579345 15.725446
RightToeBase 14.964035 -0.000000 -0.000000
LeftUpLeg 5.145893 0.883799 1.483906
LeftLeg -1.367868 -0.000000 0.000000
LeftFoot -10.189237 13.545714 -16.512292
LeftToeBase 9.519346 -0.000000 -0.000000
Spine 1.567671 -1.698154 -0.885479
RightShoulder 6.512061 -27.582097 -4.731005
RightArm 26.883185 -8.307943 75.432109
RightForeArm 90.658597 -0.000000 75.735797
RightHand 10.790524 0.000000 15.563890
RightHandThumb1 -24.326973 -0.000000 -32.862282
LeftShoulder -18.456026 38.116839 -3.017094
LeftArm 49.677478 25.309565 -52.928900
LeftForeArm 24.251028 -0.000000 30.199328
LeftHand -13.301853 0.000000 -10.773538
LeftHandThumb1 -26.253704 0.000000 33.147579
Head 1.564821 7.718146 3.585323
380
root 2.808450 37.002344 1.855270 -0.436157 -3.419076 1.649439
RightUpLeg 7.385008 -6.049930 -3.063298
RightLeg -4.783540 -0.000000 0.000000
RightFoot -12.861322 -15.563245 15.720030
RightToeBase 14.927097 -0.000000 -0.000000
LeftUpLeg 5.133567 0.905999 1.486703
LeftLeg -1.374536 -0.000000 0.000000
LeftFoot -10.198002 13.545442 -16.538409
LeftToeBase 9.553309 -0.000000 -0.000000
Spine 1.552019 -1.660786 -0.886796
RightShoulder 6.525316 -27.646106 -4.749009
RightArm 27.030519 -8.928519 74.781134
RightForeArm 90.841146 -0.000000 75.789179
RightHand 11.022411 0.000000 15.511651
RightHandThumb1 -24.326973 -0.000000 -32.862282
LeftShoulder -18.467944 38.118772 -3.042240
LeftArm 49.690663 25.319660 -52.899163
LeftForeArm 24.254205 0.000000 30.217921
LeftHand -13.419681 -0.000000 -10.710576
LeftHandThumb1 -26.253704 0.000000 33.147579
Head 1.533077 7.658981 3.575390
